<svg width="512" height="512" viewBox="0 0 512 512" xmlns="http://www.w3.org/2000/svg">
  <defs>
    <linearGradient id="bgGrad" x1="0%" y1="0%" x2="100%" y2="100%">
      <stop offset="0%" style="stop-color:#8b5cf6;stop-opacity:1" />
      <stop offset="100%" style="stop-color:#6366f1;stop-opacity:1" />
    </linearGradient>
    <filter id="shadow" x="-20%" y="-20%" width="140%" height="140%">
      <feDropShadow dx="0" dy="4" stdDeviation="8" flood-color="#000" flood-opacity="0.3"/>
    </filter>
  </defs>
  <rect width="512" height="512" rx="102" fill="url(#bgGrad)"/>
  <g transform="translate(156, 100)" filter="url(#shadow)">
    <rect x="50" y="20" width="100" height="180" rx="50" fill="white"/>
    <path d="M0 160c0 83 67 150 150 150s150-67 150-150h-40c0 61-49 110-110 110s-110-49-110-110H0z" fill="white" opacity="0.9"/>
    <rect x="125" y="320" width="50" height="60" fill="white"/>
    <rect x="75" y="370" width="150" height="30" rx="15" fill="white"/>
  </g>
  <g transform="translate(350, 350)">
    <circle cx="50" cy="50" r="60" fill="#22c55e"/>
    <path d="M30 50h40M50 30v40" stroke="white" stroke-width="12" stroke-linecap="round"/>
  </g>
</svg>